PathFileType	4	(X/Y/Z)	C:\Users\Basilio\Documents\Thesis Gigler\squatting_fais\c3dfiles\038\SLS_back_pre2\markers_experimental.trc
DataRate	CameraRate	NumFrames	NumMarkers	Units	OrigDataRate	OrigDataStartFrame	OrigNumFrames
200.000000	200.000000	4	63	mm	200.000000	0	1791
Frame#	Time	FHD			LBHD			RBHD			C7			T10			CLAV			LSHO			LUUPA			LMUPA			LDUPA			LLEP			LMEP			LRAD			LUL			LRFIN			RSHO			RUPA1			RMUPA			RDUPA			RLEP			RMEP			RRAD			RUL			RUFIN			LASI			RASI			USACR			LSACR			RSACR			LTHI1			LTHI2			LTHI3			LTHI4			LLFC			LMFC			LTIB1			LTIB2			LTIB3			LTIB4			LLMAL			LMMAL			LHEE			LMT1			LMT2			LMT5			RTHI			RTHI2			RTHI3			RTHI4			RLFC			RMFC			RTIB1			RTIB2			RTIB3			RTIB4			RLMAL			RMMAL			RHEE			RMT1			RMT2			RMT5			*61			*62			
		X1	Y1	Z1	X2	Y2	Z2	X3	Y3	Z3	X4	Y4	Z4	X5	Y5	Z5	X6	Y6	Z6	X7	Y7	Z7	X8	Y8	Z8	X9	Y9	Z9	X10	Y10	Z10	X11	Y11	Z11	X12	Y12	Z12	X13	Y13	Z13	X14	Y14	Z14	X15	Y15	Z15	X16	Y16	Z16	X17	Y17	Z17	X18	Y18	Z18	X19	Y19	Z19	X20	Y20	Z20	X21	Y21	Z21	X22	Y22	Z22	X23	Y23	Z23	X24	Y24	Z24	X25	Y25	Z25	X26	Y26	Z26	X27	Y27	Z27	X28	Y28	Z28	X29	Y29	Z29	X30	Y30	Z30	X31	Y31	Z31	X32	Y32	Z32	X33	Y33	Z33	X34	Y34	Z34	X35	Y35	Z35	X36	Y36	Z36	X37	Y37	Z37	X38	Y38	Z38	X39	Y39	Z39	X40	Y40	Z40	X41	Y41	Z41	X42	Y42	Z42	X43	Y43	Z43	X44	Y44	Z44	X45	Y45	Z45	X46	Y46	Z46	X47	Y47	Z47	X48	Y48	Z48	X49	Y49	Z49	X50	Y50	Z50	X51	Y51	Z51	X52	Y52	Z52	X53	Y53	Z53	X54	Y54	Z54	X55	Y55	Z55	X56	Y56	Z56	X57	Y57	Z57	X58	Y58	Z58	X59	Y59	Z59	X60	Y60	Z60	X61	Y61	Z61	X62	Y62	Z62	X63	Y63	Z63	

1	0	-55.27951049804689	1664.265502929688	-940.3154296875002	-209.8228302001954	1720.28125	-998.7739868164065	-208.8896179199219	1706.079711914063	-853.9226684570315	-355.7578735351563	1570.480712890625	-928.8560180664065	-389.4509582519532	1273.665405273438	-926.6212158203127	-224.4562225341797	1512.791870117188	-937.7044067382815	-296.1883850097657	1566.121704101563	-1102.559204101563	-374.6094665527344	1339.153076171875	-1192.286865234375	-327.7888488769532	1320.687866210938	-1192.676391601563	-362.2153930664063	1271.955078125	-1203.040771484375	-352.5932617187501	1212.713623046875	-1208.1064453125	-386.1507568359376	1188.899658203125	-1142.08447265625	-201.1085815429688	961.424987792969	-1147.706665039063	-249.8597259521485	942.276306152344	-1197.834106445313	-155.602279663086	892.5178222656252	-1164.091674804688	-283.5040588378907	1550.935668945313	-767.4325561523439	-346.3600769042969	1352.901123046875	-659.5994873046876	-312.2180175781251	1319.245971679688	-666.4263916015626	-355.9406738281251	1285.858154296875	-643.0723266601564	-356.4725952148438	1212.053955078125	-627.4764404296876	-398.630828857422	1191.002807617188	-693.3530883789064	-224.1694641113282	965.4670410156252	-677.2994995117189	-270.8276977539063	942.469421386719	-627.6322631835939	-181.740234375	894.0126953125002	-647.9693603515626	-227.3440551757813	1074.447998046875	-1045.6708984375	-228.7555541992188	1085.956665039063	-793.781921386719	-396.7395629882814	1134.522827148438	-922.799255371094	-410.3533325195314	1105.369384765625	-949.9727783203127	-412.9871520996095	1105.998168945313	-894.5501098632815	-281.2764282226563	756.0122680664064	-1098.598388671875	-254.8725891113282	675.2276611328126	-1091.074584960938	-209.0192260742188	678.0597534179689	-1069.591064453125	-285.1083068847657	627.3870849609376	-1072.138427734375	-284.7840576171876	565.9917602539064	-1065.353515625	-271.9128112792969	554.5904541015626	-946.0251464843752	-263.4975280761719	374.0154418945313	-1001.294494628906	-310.1081237792969	337.4177856445313	-1068.25	-275.9674072265626	328.9689025878907	-1039.680786132813	-292.4228820800782	250.853988647461	-1013.941101074219	-383.5787353515626	122.1537551879883	-1036.699829101563	-344.7810974121094	135.5437316894532	-966.8330078125002	-432.8457031250001	101.7444763183594	-982.5657348632815	-234.7773437500001	49.34151077270509	-976.5124511718752	-227.0917510986329	46.12006759643555	-1027.414916992188	-272.0127563476563	34.08855819702149	-1073.918212890625	-295.1644592285157	813.876403808594	-740.5584716796876	-263.1166076660157	754.7565917968751	-737.5363769531251	-229.8107604980469	754.2191162109376	-742.1737060546876	-296.7589111328126	678.7289428710939	-758.5625000000001	-291.5054016113282	542.7226562500001	-769.5474853515627	-292.2113647460938	544.0366210937501	-890.4731445312502	-260.0625000000001	365.0677795410157	-799.8718261718752	-340.2026672363282	289.6357116699219	-762.4716186523439	-294.6470642089844	289.5821228027344	-774.0261840820315	-289.3543701171876	238.7738037109376	-805.1467895507815	-361.7687683105469	121.4840774536133	-778.0020141601565	-333.6322631835938	130.3573303222657	-856.705261230469	-424.248992919922	92.92172241210939	-839.843933105469	-212.7642822265626	50.25898742675783	-841.1253051757815	-212.9775695800782	47.64408111572266	-794.520202636719	-255.9309234619141	35.75146484375001	-748.5655517578126	nan	nan	nan	nan	nan	nan	
2	0.005	-55.53385162353517	1664.379150390625	-940.466979980469	-210.1143188476563	1720.276489257813	-998.851013183594	-209.1085662841797	1706.104614257813	-853.9932250976565	-355.9185485839844	1570.42333984375	-928.8784179687502	-389.4466552734376	1273.60888671875	-926.7063598632815	-224.6962432861329	1512.83837890625	-937.6252441406252	-296.4446716308594	1566.146606445313	-1102.5673828125	-374.6596984863282	1339.117065429688	-1192.311767578125	-327.8047485351563	1320.63037109375	-1192.682006835938	-362.2197570800782	1271.920166015625	-1203.010498046875	-352.5630493164063	1212.647094726563	-1208.118774414063	-386.1201171875001	1188.87158203125	-1142.099853515625	-201.3959197998047	961.216247558594	-1147.8662109375	-250.1202087402344	942.1011962890627	-1197.992431640625	-156.0579681396485	892.078552246094	-1163.823486328125	-283.6348266601563	1550.962768554688	-767.4288940429689	-346.4301147460938	1352.914672851563	-659.6174316406251	-312.2935485839844	1319.228637695313	-666.4479370117189	-355.9641113281251	1285.835815429688	-643.0688476562501	-356.4511108398438	1212.054077148438	-627.4469604492189	-398.6277465820314	1191.006103515625	-693.3289794921876	-224.2463073730469	965.461608886719	-677.2060546875001	-270.9067993164063	942.4583740234377	-627.5396118164064	-181.7649536132813	893.978942871094	-647.9338989257814	-227.1909484863282	1074.458129882813	-1045.681884765625	-228.7203063964844	1085.959106445313	-793.852966308594	-396.6527709960939	1134.51953125	-922.9458007812502	-410.2156677246095	1105.268676757813	-950.0730590820315	-412.8205566406251	1105.9990234375	-894.615905761719	-281.1745605468751	756.0183715820314	-1098.597778320313	-254.7632446289063	675.2037353515626	-1091.076782226563	-208.9030456542969	678.0144653320314	-1069.620239257813	-285.6932067871094	627.8632202148439	-1072.195556640625	-284.7353210449219	565.9738159179689	-1065.360107421875	-271.9128417968751	554.5905151367189	-946.0251464843752	-263.4724121093751	374.0213623046876	-1001.328247070313	-310.1410217285157	337.4013061523438	-1068.270263671875	-275.9381103515626	328.9833679199219	-1039.676879882813	-292.4228820800782	250.8540344238282	-1013.941101074219	-383.6001892089844	122.1283645629883	-1036.66796875	-344.7830810546876	135.5678863525391	-966.821716308594	-432.8278808593751	101.7918930053711	-982.5747680664065	-234.7835693359376	49.34934616088869	-976.4547119140627	-227.0845031738282	46.14522933959962	-1027.4697265625	-271.9632263183594	34.07186508178712	-1073.910888671875	-295.0890808105469	813.8655395507815	-740.6071166992189	-263.0754089355469	754.7537231445314	-737.6063232421876	-229.8047943115235	754.2032470703126	-742.1842651367189	-296.7532348632813	678.7172241210939	-758.6428222656251	-291.5134887695313	542.6939086914064	-769.611755371094	-292.2340087890626	544.0476684570314	-890.5292968750002	-260.0579223632813	365.0671081542969	-799.9516601562502	-340.2377624511719	289.6203918457032	-762.4791870117189	-294.6446533203126	289.5804748535157	-774.0396728515627	-289.3663330078126	238.7542419433594	-805.1782226562502	-361.7608642578126	121.4894943237305	-778.0447998046877	-333.5961914062501	130.3500366210938	-856.7130126953127	-424.2470092773439	92.9015350341797	-839.8527832031252	-212.7182159423829	49.92650222778322	-841.2861328125002	-212.6498565673829	47.86948013305665	-794.2503662109377	-255.9223937988282	35.74783325195313	-748.5662841796876	nan	nan	nan	nan	nan	nan	
3	0.01	-55.85488510131837	1664.54931640625	-940.5670166015627	-210.3741149902344	1720.326293945313	-998.9027099609377	-209.3510894775391	1706.1611328125	-854.0466918945315	-356.1373291015626	1570.385620117188	-928.912292480469	-389.5169372558595	1273.576293945313	-926.7258300781252	-224.9492340087891	1512.85546875	-937.6004028320315	-296.6403808593751	1566.144165039063	-1102.587646484375	-374.6681823730469	1339.075073242188	-1192.3486328125	-327.8224487304688	1320.615966796875	-1192.67822265625	-362.1779174804688	1271.858764648438	-1203.058715820313	-352.5506896972657	1212.646850585938	-1208.095458984375	-386.064178466797	1188.861572265625	-1142.089477539063	-201.582992553711	961.0119628906252	-1148.043579101563	-250.3186492919922	941.9445800781252	-1198.174438476563	-155.9018096923828	891.5781860351565	-1164.227905273438	-283.8454589843751	1550.999877929688	-767.4199218750001	-346.5618591308594	1352.930786132813	-659.5765991210939	-312.3610839843751	1319.284790039063	-666.4487304687501	-355.9910278320313	1285.860229492188	-643.0355834960939	-356.4725952148438	1212.053955078125	-627.4764404296876	-398.6368103027345	1190.988525390625	-693.3503417968751	-224.3342590332032	965.422302246094	-677.1345214843751	-270.9534301757813	942.4538574218752	-627.4847412109376	-181.8080596923828	893.973571777344	-647.8833618164064	-225.1985626220704	1074.95166015625	-1046.7451171875	-228.5939025878907	1085.92529296875	-793.8713989257815	-396.5435180664064	1134.489379882813	-922.9941406250002	-410.0369567871095	1105.277709960938	-950.1811523437502	-412.6962890625001	1105.98779296875	-894.6931152343752	-281.0809631347657	756.0325317382814	-1098.665405273438	-254.734359741211	675.2130126953126	-1091.123901367188	-208.5288085937501	677.5296020507814	-1069.579345703125	-285.6821899414063	627.8698120117189	-1072.224365234375	-284.7041015625001	565.9567260742189	-1065.39208984375	-271.9692687988282	554.5795288085939	-946.0896606445315	-263.4975280761719	374.0154418945313	-1001.294494628906	-310.1183166503907	337.4025573730469	-1068.269287109375	-275.9760742187501	328.9945068359376	-1039.710083007813	-292.4299621582032	250.884750366211	-1013.940002441406	-383.4727172851563	121.7207107543946	-1036.846801757813	-344.7843017578126	135.5762481689453	-966.8474731445315	-432.8928222656251	101.8052139282227	-982.5792236328127	-234.8056335449219	49.33109283447267	-976.5039062500002	-227.1165924072266	46.15047454833985	-1027.485107421875	-271.9613647460938	34.07934951782227	-1073.900268554688	-295.0796813964844	813.8643188476565	-740.6240234375001	-262.3919372558594	755.6844482421876	-736.8135375976564	-229.7403717041016	754.2084960937501	-742.2601928710939	-296.7640686035157	678.7139892578126	-758.6746826171876	-291.5572204589844	542.6920166015626	-769.6472167968752	-292.2189941406251	544.0227661132814	-890.5705566406252	-260.0740966796876	365.0626525878907	-799.974548339844	-340.1957702636719	289.6283569335938	-762.5020141601564	-294.6577453613282	289.5662536621094	-774.045104980469	-289.3814086914063	238.7662963867188	-805.2276611328127	-361.7619323730469	121.513298034668	-778.0476684570315	-333.6341552734376	130.3626251220703	-856.7213134765627	-424.2676086425782	92.92418670654298	-839.8542480468752	-212.735336303711	50.27948379516603	-841.1137695312502	-213.0033111572266	47.65100479125977	-794.5369262695315	-255.9192657470704	35.76801681518555	-748.5698242187501	nan	nan	nan	nan	nan	nan	
4	0.015	-56.0731773376465	1664.65185546875	-940.7232666015627	-210.5795898437501	1720.875854492188	-998.9423828125002	-209.5893096923829	1706.214477539063	-854.0943603515627	-356.3088378906251	1570.333740234375	-928.9086914062502	-389.5164489746095	1273.512817382813	-926.7578735351565	-225.0327758789063	1512.907470703125	-937.591735839844	-296.8197021484376	1566.162109375	-1102.581176757813	-374.6843872070313	1339.018310546875	-1192.33642578125	-327.8165588378907	1320.59375	-1192.646606445313	-362.1682739257813	1271.815307617188	-1203.052612304688	-352.5081176757813	1212.652954101563	-1208.06884765625	-386.0658264160157	1188.779541015625	-1142.076416015625	-201.8323364257813	960.813659667969	-1148.271728515625	-250.6126098632813	941.7683105468752	-1198.325561523438	-156.6220092773438	891.6516723632815	-1164.538330078125	-283.9870910644532	1551.019287109375	-767.4064941406251	-346.6579589843751	1352.9443359375	-659.5898437500001	-312.4426269531251	1319.301025390625	-666.4105834960939	-356.0490722656251	1285.877319335938	-643.0354003906251	-356.5259399414063	1212.076782226563	-627.4619140625001	-398.6997680664064	1190.976318359375	-693.3673095703126	-224.3173980712891	965.4085083007815	-677.0497436523439	-271.0083923339844	942.4656982421877	-627.4207763671876	-181.9231567382813	893.9476318359377	-647.7854003906251	-225.0352630615235	1074.9619140625	-1046.777465820313	-228.4990234375001	1085.920288085938	-793.9517211914065	-396.4619750976564	1134.456787109375	-923.1088867187502	-409.9156494140626	1105.2265625	-950.297302246094	-412.6518554687501	1105.944213867188	-894.8406982421877	-281.0141296386719	756.0107421875001	-1098.705200195313	-254.9986419677735	674.6429443359376	-1091.22509765625	-208.6575927734376	678.0090942382814	-1069.681518554688	-285.5860595703126	627.8594970703126	-1072.276611328125	-284.6921997070313	565.9537963867189	-1065.4111328125	-271.8512268066407	554.6142578125001	-946.1196289062502	-263.4189453125001	374.0007019042969	-1001.346435546875	-310.1280517578126	337.3896789550782	-1068.3056640625	-275.9567260742188	328.9480590820313	-1039.76123046875	-292.3666076660157	250.8395385742188	-1013.99609375	-383.5957641601563	122.122917175293	-1036.674682617188	-344.8309020996094	135.5645446777344	-966.8108520507815	-432.8359985351564	101.7766876220703	-982.5272216796877	-234.7907409667969	49.36561203002931	-976.4495239257815	-227.1312255859376	46.19886016845704	-1027.412963867188	-272.0471801757813	34.09949493408204	-1073.942626953125	-295.0363464355469	813.8489990234377	-740.6991577148439	-263.0360717773438	754.7304687500001	-737.7486572265626	-229.7950134277344	754.1987915039064	-742.2658691406251	-296.7973327636719	678.7104492187501	-758.7166137695314	-291.5219421386719	542.6987304687501	-769.697448730469	-292.2560729980469	544.0330200195314	-890.622009277344	-260.0648498535157	365.0412597656251	-800.064636230469	-340.2221069335938	289.6388244628907	-762.5452270507814	-294.6669921875001	289.5780944824219	-774.114196777344	-289.4015197753907	238.7514038085938	-805.2091064453127	-361.7727966308594	121.5017013549805	-778.0606079101565	-333.6134033203126	130.3338775634766	-856.7673339843752	-424.2649841308595	92.91030883789064	-839.8314208984377	-212.7601165771485	50.2826614379883	-841.1670532226565	-212.9860992431641	47.63998031616212	-794.5161743164065	-255.9615173339844	35.75041198730469	-748.5594482421876	nan	nan	nan	nan	nan	nan	
